<?xml version="1.0" encoding="UTF-8"?>
<svg version="1.1" viewBox="0 0 2048 2048" width="1280" height="1280" xmlns="http://www.w3.org/2000/svg">
<path transform="translate(0)" d="m0 0h2048v2048h-2048z" fill="#FEFEFE"/>
<path transform="translate(665 1e3)" d="m0 0h96l2 2 2 29v57l-2 49-1 1h-97l-7-3-13-4-12-5-4-4-6-3-3-5-6-12-1-4-1-22 1-35 2-12 6-12 7-6 10-5 8-2 16-2z" fill="#FEFEFE"/>
<path transform="translate(1671,910)" d="m0 0h26l19 2 20 9 9 4 12 12 7 10 8 7 2-5 6-7 4-4 3-6 11-8 10-5 16-7 22-2h15l18 2 17 8 10 4 7 5 10 13 5 8 5 10 4 15 1 10-1 169-8 1-2-1-1-134-1-30h-2l-4-15-6-16-7-11-8-6-11-8-6-3-19-3h-24l-17 3-10 4-11 8-8 7-3 4-2 8-2 6-4 6-3 5-1 4-1 171-2 1h-7l-5-3-1-2v-39l-1-132-4-11-6-10-8-12-7-6-6-3-6-5-18-4h-30l-9 2h-8l-8 4-12 8-11 10-7 18-3 12-1 7-1 161-5 5h-9l-3-4v-147l1-2 1-21 5-19 3-10 5-3 8-13 8-9 8-6 10-4 11-5z" fill="#0A090B"/>
<path transform="translate(644,911)" d="m0 0h55l13 1 12 6 15 5 8 7 7 6 7 8 9 15 2 5 3 19 3 8v163l-1 1h-127l-6-3-11-3-7-3-9-8-7-8-6-7-7-15-2-7v-42l1-17 3-12 3-8 4-11 9-7 4-6 11-4 14-6 20-1 95-1-3-14-4-10-10-14-7-7-10-3-8-6-12-3-9-1-54-1-5-5v-5zm21 91-3 2-16 2-10 3-11 6-5 6-5 10-2 12-1 40 1 17 4 11 5 9 5 3 4 2 4 4 10 4 13 4 7 3h97l1-1 2-49v-57l-2-29-2-2z" fill="#0A090B"/>
<path transform="translate(1298,920)" d="m0 0h14l1 1v145l1 14 5 16 3 11 5 7 2 6 10 10 6 2 7 6 17 5 9 1 3 3h42v-2l25-6 4-3h2l1-3 11-7 5-5 6-9 5-13 3-18 1-157 10-4h5v175l-3 6-2 10-4 11-5 4-6 9-7 8-10 7-10 4-8 5-6 2-12 1-3 1h-45l-19-3-11-4-16-8-13-13-7-8-5-7-9-24-2-11-1-21v-127z" fill="#0A090B"/>
<path transform="translate(964,910)" d="m0 0h24l19 1 10 2 10 4 16 6 5 4 7 3 8 10 5 7 5 5 7 18 3 9 1 11v164l-2 1h-7l-5-3-1-111-1-43-2-2-2-17-4-15-7-10v-2l-4-2-14-11-9-6-12-3-14-2h-39l-20 3-12 5-12 9-8 8-12 24-2 10-1 164-2 4h-13l-1-1v-98l1-66 2-17 4-7 3-12 8-11 7-5 6-8 7-6 11-5 16-7z" fill="#0A090B"/>
<path transform="translate(179,912)" d="m0 0h52l8 3 10 2 9 3 13 3 11 7 1 7-6 6-10-1-19-9-9-2-24-1h-20l-19 1-8 3-16 10-8 7-7 8-8 16-4 14-3 8-1 10-2 4v48l2 4 2 17 7 19 6 10 9 9 11 6 5 2 6 3 9 2 12 4 13 2 9 2h16l9-1 16-4 6-2 21-4h3l1 2v11l-9 6-16 4-20 2-3 2h-29l-5-2-31-4-12-3-10-6-10-7-18-18-5-10-6-13-2-23v-72l3-16 9-24 8-9 6-8 8-9 15-9 13-6 9-2z" fill="#0A090B"/>
<path transform="translate(465,911)" d="m0 0h43l12 1 6 5v5l-4 5-54 1-23 4-5 2-7 5-12 6-9 13-3 5-6 16-2 8-1 11-1 153-4 4h-9l-1-8 1-157 2-3 2-17 4-14 16-24 10-6 9-6 14-5 8-3z" fill="#0A090B"/>
<path transform="translate(1186,912)" d="m0 0h12l1 4-1 235-10 4-4-1 1-241z" fill="#0A090B"/>
</svg>
