<?xml version="1.0" encoding="UTF-8"?>
<svg version="1.1" viewBox="0 0 2048 1448" width="1280" height="1280" xmlns="http://www.w3.org/2000/svg">
<path transform="translate(1119,619)" d="m0 0h12l16 3 11 4 2 2 19 1 10 4 6 5 2 5-1 13-5 20-5 15-1 29-3 29-5 22-6 19-7 17-10 15-10 10-14 11-14 9-15 8-19 7-10 3 15-2 22-4 15-4 20-7 25-11 21-10 11-4 9-2h8v4l-11 7-19 10-20 9-21 9-9 4-20 7-18 5-19 4-21 3-14 1h-52l-26-2-25-4-21-4-35-8-27-8-33-11-26-10-34-14-10-5-23-11-36-18-23-13-22-13-19-12-17-11-22-14-18-12-16-11-5-6 8 1 18 8 15 8 19 9 22 12 14 7 19 10 39 19 33 15 35 15 28 11 5 2 25-1 14 3 26 7 28 7 45 9 32 4h43l27-4 19-5 17-6 16-8 16-11 10-9 7-10 7-15 7-24 1-9-7 7-14 11-13 8-8 4-9 3-11 2h-16l-13-3-8-4-9-7-8-9-6-12-3-11v-25l4-16 7-16 7-12 10-13 14-14 15-10 16-7 11-3zm-3 36-16 5-12 7-13 11-11 15-6 14-2 10v12l2 8 6 9 8 4 3 1h12l13-4 9-5 10-9 7-7 7-11 5-10 6-19 4-21v-5l-6-3-7-2z" fill="#B11F24"/>
<path transform="translate(984,328)" d="m0 0h39l27 2 26 4 25 6 27 8 27 11 30 15 16 10 17 12 6 4v2l4 2 11 9 24 24 9 11 11 15 10 16 9 19 5 15 1 5v14l-5 1-6-5-7-10-13-21-11-1-6-4-7-14-8-13-9-13-11 7-10 6-12 5-18 4h-10l-13-4-5-5 5-2 15-3 10-3 15-7 17-11 3-2-1-4-12-13-22-18-22-14-21-11-11-5-9 2-27 9-18 5-21 4-9 1h-43l-19-3-20-5-7-1-21 6-12 5-16 8-13 9-10 8-13 12-13 13 1 3 23 11 20 7 17 5 25 4 10 1 6 4v2l20 2 7 2-1 4-5 2h-19l-29-3-19-4-8 7-9 9-12 16-8 13-9 17-8 21-5 17-4 18 28 7 15 2 14 1 12 6 5 6-1 5-6 1-21-2-21-4-31-7-22-6-21-8-9-4-19-9-18-11-14-10-15-13-9-8-18-22-5-8-6 10-12 24-11 27-9 29-5 20-3 6-3 3h-11l-1 18-1 10-1 25-2 3-4-1-2-4-1-8v-31l2-20 5-22 12-38 8-19 9-19 12-21 12-19 11-16 12-16 11-13 24-24 10-8 13-10 17-12 20-12 23-12 17-8 20-8 20-7 21-6 16-4 35-6zm-24 15-19 3-5 1 5 5 14 9 16 8 16 6 17 4 15 2h10l31-3 22-5 21-7 10-2-3-2-26-8-27-6-27-4-13-1zm-54 12-27 10-24 11-22 11-17 10-1 3 9 14 12 14 6 5 8-6 11-9 12-9 18-13 19-11 16-8 10-4v-2l-17-10-8-6zm-108 53-13 10-11 9-14 12-16 16-9 11-11 13-8 11 1 6 11 18 10 13 14 15 13 12 13 10 18 12 21 12 16 7h3l12-36 10-24 12-23 7-11 11-15 6-7-1-3-21-9-25-13-14-10-9-7-13-13-11-16z" fill="#B11F24"/>
<path transform="translate(1348,614)" d="m0 0h10l14 2 14 5 16 9 12 11 9 12 8 16 5 13 4 17 1 8v31l-3 14-5 12-6 10-5 6-13 9-11 5-15 4-14 2h-35l-24-3-23-5-8-3-4-5-2-6v-8l3-10-3-15-1-9v-29l2-16 6-20 8-16 7-11 9-10 8-7 10-6 13-5zm3 30-13 4-10 7-11 11-7 11-6 16-3 12-2 19v25l1 15 1 3 10 3 16 3 13 1h13l17-2 15-5 10-6 7-6 8-14 3-9 2-10v-19l-3-15-7-16-6-8-4-5-10-8-8-4-9-3z" fill="#B11F24"/>
<path transform="translate(1300,556)" d="m0 0h9l14 4 8 4 1 4-21 14-12 11-12 12-10 13-8 12-8 14-10 21-5 17-3 20-1 11v44l2 12 4 11 4 5 14 8 7 1 6 5 3 9v7l-3 5-2 2h-11l-16-6-11-6-9-7-8-8-6-12-3-13-1-14v-40l3-29 6-28 9-27 12-25 12-19 9-12 7-9 6 1 6 3 8-8z" fill="#B11F24"/>
<path transform="translate(993,619)" d="m0 0 10 1 6 4 3 6v9l-7 18-6 18-4 17-3 18-1 14v26l2 23 4 21 2 10v4l-2 1h-8l-7-3-2-5h-7l-7-3-6-7-3-17-1-17v-16l1-17 4-26 6-27 9-27 7-17 5-6z" fill="#B11F24"/>
<path transform="translate(661,969)" d="m0 0 7 1 5 5 1 3v100l-2 5-4 4h-9l-5-5-2-7-9 8-10 4h-15l-10-4-8-7-6-10-3-9-1-7v-13l2-10 4-10 8-9 9-5 4-1h18l7 3 6 4 4 3 1-33 3-7zm-33 48-8 4-6 8-2 7v17l4 10 7 6 5 2h7l8-3 6-7 3-8v-17l-4-10-8-7-5-2z" fill="#B11F24"/>
<path transform="translate(975,969)" d="m0 0 7 1 5 5 1 3 1 35 8-7 9-4h18l9 4 6 4 4 5 5 10 2 8v21l-4 13-6 10-7 6-10 4h-16l-10-4-8-8-3 8-4 4h-9l-4-4-2-5v-99l3-7zm31 48-7 3-5 5-4 8-1 5v14l3 9 3 5 7 4 4 1h7l8-4 4-5 3-8 1-4v-11l-2-8-4-8-7-5-3-1z" fill="#050001"/>
<path transform="translate(1098 1e3)" d="m0 0h13l12 3 9 6 7 8 4 9 1 5v8l-2 5-4 3-3 1h-50l2 11 6 9 6 3h13l10-5 7-7 4-2 7 1 3 4-1 6-4 7-8 6-9 4-5 1h-20l-10-3-10-6-6-7-5-10-2-11v-12l2-10 4-9 7-8 6-5 10-4zm2 15-7 3-6 7-2 6v5h38l-1-9-4-6-4-4-6-2z" fill="#010000"/>
<path transform="translate(882 1e3)" d="m0 0h6l5 4 5 12 15 44 1 1 18-51 5-9 2-1h7l6 5v7l-4 12-11 29-12 31-6 16-7 11-5 4-5 2-6 1h-12l-8-2-3-3-1-7 5-5h14l5-1 2-5 4-9-1-5-12-31-14-35v-9l5-5z" fill="#020000"/>
<path transform="translate(726 1e3)" d="m0 0h12l10 2 12 6 8 9 4 8 3 12v12l-2 9-4 10-9 10-14 7-4 1h-19l-10-3-9-6-7-7-5-10-2-11v-12l2-11 6-11 8-8 10-5zm0 16-8 5-5 9-1 4v18l3 9 5 6 9 4h7l10-5 5-8 2-6v-18l-4-9-6-7-5-2z" fill="#B11F24"/>
<path transform="translate(506 1e3)" d="m0 0h6l6 5 2 7 9-8 7-3 5-1h11l10 3 8 7 4 8 1 7v52l-3 7-3 2h-9l-5-4-2-5-1-49-3-8-7-3-10 1-6 4-4 7-1 8-1 42-4 6-2 1h-9l-5-5-1-2v-73l4-5z" fill="#B11F24"/>
<path transform="translate(823 1e3)" d="m0 0h12l12 3 9 5 5 5 4 6 1 8-3 5-4 2-7-1-5-5-4-6-6-4-4-1h-7l-8 3-6 7-2 5-1 6v11l2 9 4 6v2l5 2 6 2h7l10-5 8-11 4-3h6l5 4 1 2-1 10-6 8-7 6-10 4-4 1h-20l-13-4-10-8-6-9-4-15v-12l3-13 7-12 7-6 10-5z" fill="#030000"/>
<path transform="translate(461,969)" d="m0 0 7 1 5 5 2 5v97l-4 8-3 2h-9l-5-4-2-4v-102l3-5z" fill="#B11F24"/>
<path transform="translate(1421,1018)" d="m0 0h14l8 4 5 6 7-6 8-4h15l8 4 5 7 2 9v47l-1 1h-9l-1-1-1-51-5-6-3-1h-8l-7 2-3 1-2 5-2 9-1 42h-9l-1-1-1-49-3-6-6-3h-8l-8 3-4 7-1 5-1 44h-10v-67h8l2 7 8-6z" fill="#040000"/>
<path transform="translate(1168 1e3)" d="m0 0h7l5 3 3 8 6-8 7-3h9l11 4 4 5v6l-4 5-7 1-7-2h-7l-6 3-3 6-2 9-1 40-3 6-4 3h-8l-6-5-1-4v-67l3-7z" fill="#020000"/>
<path transform="translate(1538,1018)" d="m0 0h14l10 5 5 6 4 9 1 4v21l-4 11-8 9-6 3-5 1h-9l-9-3-7-6v37h-11v-96h9l2 8 8-7zm1 8-9 3-5 8-1 3v24l5 10 4 3 6 2h7l7-3 6-7 3-10v-14l-3-10-5-6-7-3z" fill="#030000"/>
<path transform="translate(1029,532)" d="m0 0h8l6 3 5 6 2 7v16l-6 12-10 7-6 2h-12l-8-3-5-4-4-7-1-8 3-10 8-9 10-6 7-5z" fill="#B11F24"/>
<path transform="translate(288,1018)" d="m0 0h17l8 4 5 6 2 8v50h-7l-3-9-8 7-4 2-6 1h-9l-8-3-6-5-2-5v-13l4-7 8-5 13-3h18l-2-13-4-5-4-1h-8l-11 3-4 1-3-6v-2l11-4zm6 35-11 3-5 6-1 2v7l4 6 5 2h7l9-3 6-7 2-9v-7z" fill="#060101"/>
<path transform="translate(1606,1018)" d="m0 0h17l8 4 5 5 2 6v53h-7l-3-9-8 7-9 3h-10l-8-3-5-5-3-7v-9l3-7 6-5 11-4 5-1h18l-1-11-3-5-2-2-4-1h-8l-13 4h-2l-2-4 1-5zm6 35-10 3-5 4-1 2v11l6 5 9 1 11-4v-2h2l4-9v-11z" fill="#070101"/>
<path transform="translate(1725,1019)" d="m0 0h11l14 36 6 19 1 1 2-9 14-40 3-7h11l-7 20-12 31-6 16-6 15-6 9-6 4-3 1h-15v-8l12-1 6-4 6-13-1-8-24-60z" fill="#050001"/>
<path transform="translate(1341,1018)" d="m0 0h17l10 5 5 5 4 6 3 9v19l-4 11-8 9-9 4-5 1h-9l-10-3-8-6-5-8-3-9v-18l4-11 6-8zm4 8-7 3-5 5-3 8-1 4v13l3 10 6 7 8 3h7l9-4 4-5 3-7 1-5v-12l-3-11-4-5-5-3-4-1z" fill="#050101"/>
<path transform="translate(365,1018)" d="m0 0h15l10 5 4 5 2 6v52h-9l-1-1-1-49-3-6-7-3h-9l-7 2-5 6-2 5-1 45-1 1h-9l-1-1v-66h9l2 8 7-6z" fill="#090101"/>
<path transform="translate(1684,1018)" d="m0 0h14l9 4 5 6 3 10v47l-1 1h-9l-1-45-2-8-5-5-4-1h-8l-9 3-4 5-2 7-1 44h-10v-67h8l1 9h2l2-4 6-4z" fill="#030000"/>
<path transform="translate(1282,1018)" d="m0 0h17l8 3-1 6-1 2-8-1h-13l-6 3-4 5-3 10v13l4 12 6 5 5 1h9l12-2v8l-6 3-6 1h-10l-10-3-8-6-6-12-1-4v-19l3-10 6-8 8-5z" fill="#070101"/>
</svg>
