<?xml version="1.0" encoding="UTF-8"?>
<svg version="1.1" viewBox="0 0 1600 973" width="1280" height="1280" xmlns="http://www.w3.org/2000/svg">
<path transform="translate(410,209)" d="m0 0h162l-2 12-15 70-12 57-25 118v4l29-8 13-3 14-68 17-81 13-64 7-34 1-3h161l6 10 8 16 12 23 12 22 14 27 11 20 8 16 12 23 10 18 3 6 17-2 2-13 26-126 8-39 1-1h161l-1 9-25 118-6 27h12l26-3 12-57 15-73 4-19 1-2h329l-5 25-17 83-1 1h-168l-1 8-4 20-1 2 42-2 58-2 58-1h108v7l-21 104-7 37-9 1h-260l-1 9-5 23-1 2h169l-1 9-16 78-4 19-1 2h-328l1-11 15-72 11-54h-15l-24 1-5 26-23 108-1 2h-158l-9-16-12-23-12-22-18-34-12-22v-2l-4 1-37 3-9 1h-15l-4 20-19 89-2 5h-158l1-9 14-69 4-17-12 2-29 4-2 1-3 10-8 15-8 10-9 10-10 9-15 10-17 9-22 8-21 5-10 2h-169l1-9 5-23v-4l-76 19-24 7-28 8-3-1 12-7 19-9 16-8 20-9 28-12 13-5 11-5 13-5 6-2 13-61 1-1 89-1 10-4 9-7 6-9 5-12 12-57 24-116 15-73z" fill="#323B97"/>
<path transform="translate(1122,209)" d="m0 0h329l-5 25-17 83-1 1h-168l-1 8-4 20-1 2 42-2 58-2 58-1h108v7l-21 104-7 37-9 1h-260l-1 9-5 23-1 2h169l-1 9-16 78-4 19-1 2h-328l1-11 15-72 11-54h-15l-24 1 5-26 13-60 9-43 1-5 32-3 7-1 12-57 15-73 4-19z" fill="#EC2D24"/>
<path transform="translate(410,209)" d="m0 0h162l-2 12-15 70-12 57-25 118v4l29-8 7-2h6l-1 8-9 45-5 24-1 2-12 2-29 4-2 1-3 10-8 15-8 10-9 10-10 9-15 10-17 9-22 8-21 5-10 2h-169l1-9 5-23v-4l-76 19-24 7-28 8-3-1 12-7 19-9 16-8 20-9 28-12 13-5 11-5 13-5 6-2 13-61 1-1 89-1 10-4 9-7 6-9 5-12 12-57 24-116 15-73z" fill="#323B97"/>
<path transform="translate(1122,209)" d="m0 0h329l-5 25-17 83-1 1h-168l-1 8-4 20-1 2-11 1-6 1-27 1-3 1-27 1-2 1-23 1-4 1-22 1-2 1-18 1-5 1h-13l1-9 14-67 11-54 4-19z" fill="#323B97"/>
<path transform="translate(1147,492)" d="m0 0h76l-1 9-5 23-1 2h169l-1 9-16 78-4 19-1 2h-328l1-11 15-72 11-54 1-1 19-1 10-1 47-1z" fill="#333C97"/>
<path transform="translate(554,460)" d="m0 0h6l-1 8-9 45-5 24-1 2-12 2-29 4h-2l2-13 11-52 2-11 2 1 29-8z" fill="#EC2D24"/>
<path transform="translate(1047,683)" d="m0 0h12l11 39 5 18v3h2l1-13 7-47h12l-2 19-10 70-1 5h-12l-7-24-9-33v-2h-2l-2 18-6 41h-12l2-19 10-71z" fill="#3A439B"/>
<path transform="translate(774,683)" d="m0 0h30l8 2 6 5 3 8 1 12-2 12-6 10-7 4-4 1 5 11 6 18 2 11h-13l-7-24-5-12-3-2h-9l-5 34-1 4h-13l13-93zm10 16-2 11-1 14h17l6-3 4-5 1-3v-9l-4-5z" fill="#3A439B"/>
<path transform="translate(383,683)" d="m0 0h31l8 2 5 5 3 6 1 4v16l-3 10-7 8-8 4 7 16 6 20v3h-13l-3-8-6-21-4-8-12-2-2 19-3 20h-13l3-24 9-65zm11 16-2 9-2 16h18l6-3 4-6 1-10-3-5-2-1z" fill="#39429B"/>
<path transform="translate(1325,683)" d="m0 0h12l7 24 9 33v3h2l2-19 6-40 1-1h11l-1 12-11 77-1 5h-12l-7-24-9-34-2-1-1 11-7 48h-12l3-25 9-64z" fill="#3A439B"/>
<path transform="translate(726,432)" d="m0 0 4 2 10 19 6 11 11 22 9 16 6 11v2l-3 1-37 3-9 1h-15l1-8 11-52z" fill="#EC2C23"/>
<path transform="translate(856,682)" d="m0 0h13l7 4 7 8 4 10 2 15-1 16-4 16-7 14-8 9-8 4-4 1h-7l-8-3-6-5-6-12-2-8v-23l4-18 4-10 8-11 9-6zm1 16-6 4-6 10-4 13-1 6v15l3 9 6 7 2 1h7l6-4 6-8 5-14 1-6v-18l-3-8-5-6-2-1z" fill="#39419A"/>
<path transform="translate(1276,682)" d="m0 0h13l8 5 5 6 4 9 2 7v25l-4 17-7 14-7 8-7 4-7 2-10-1-6-3-7-8-4-11-1-5v-24l4-18 7-14 7-8zm1 16-6 4-5 7-5 15-1 6v17l3 9 4 5 4 2 9-1 7-6 6-13 3-14v-15l-3-9-5-6-2-1z" fill="#38409A"/>
<path transform="translate(196,683)" d="m0 0h46l-1 13-1 3-33 1-3 21h32l-2 15h-33l-1 12-2 14h36l-2 15h-49l3-25 9-64z" fill="#3A429B"/>
<path transform="translate(450,683)" d="m0 0h45l1 2-2 13-1 1h-33l-3 22h32l-1 11-1 4h-33l-1 13-2 13h36l-1 12-1 3h-49l12-86 1-7z" fill="#39429A"/>
<path transform="translate(256,683)" d="m0 0h13l7 19 3 9v3l3-3 8-14 9-14h15l-1 4-13 23-10 17-3 5 3 10 11 32v3h-14l-9-25v-2l-3 3-13 22-2 2h-16l6-12 13-22 7-12-2-9-12-36z" fill="#39429A"/>
<path transform="translate(664,683)" d="m0 0h14l1 1 9 84v9h-11l-2-10-1-10h-24l-5 12-3 8h-13l1-5 33-88zm4 22-9 24-4 12h18l-2-24-1-11z" fill="#38419A"/>
<path transform="translate(1131,683)" d="m0 0h14l2 12 8 75v7h-12l-2-21h-25l-3 10-4 11h-13l1-6 19-50 14-37zm4 21-13 35v2h18l-3-32-1-5z" fill="#38419A"/>
<path transform="translate(1400,682)" d="m0 0h14l6 3 5 5 5 10 1 8h-13l-3-8-4-2h-9l-3 2-1 3v8l5 6 13 9 6 5 4 8 1 13-2 10-5 9-6 5-8 3h-8l-9-3-7-6-4-10-1-12h12l3 12 6 2h8l5-3 2-3v-9l-2-5-4-2-11-7-5-4-4-6-2-6v-16l4-10 5-6z" fill="#38419A"/>
<path transform="translate(579,682)" d="m0 0h13l8 4 6 9 3 10v3h-12l-5-9-3-1h-8l-4 1-1 4v8l5 6 12 8 7 6 4 8 1 5v10l-3 11-6 8-5 4-7 2h-8l-9-3-6-5-4-8-2-11v-4h12l1 1 2 9 3 3 3 1h8l5-1 2-5v-10l-5-5-14-10-5-5-4-10v-14l4-11 4-5z" fill="#39429A"/>
<path transform="translate(976,682)" d="m0 0h13l8 4 6 8 3 9v5h-12l-4-8-3-2h-9l-4 3-1 9 4 6 16 11 6 7 3 8v13l-3 10-4 6-7 6-7 2h-7l-10-3-5-4-4-7-2-6v-11h12l2 10 6 4h8l5-2 3-6-1-8-5-5-10-7-8-7-4-8-1-4v-12l3-10 5-7z" fill="#374099"/>
<path transform="translate(520,682)" d="m0 0h13l8 4 5 6 4 10v6h-12l-4-8-3-2h-9l-4 3-1 9 4 6 12 8 9 8 3 6 1 4v14l-4 11-7 8-6 3-4 1h-7l-10-3-5-5-4-6-2-7v-10h12l2 9 4 4 2 1h8l6-3 2-5v-6l-4-6-16-11-6-7-3-10v-10l3-11 8-9z" fill="#374099"/>
<path transform="translate(917,682)" d="m0 0h13l7 3 7 8 3 8v7h-12l-3-7-4-3h-9l-4 4v10l1 3 4 2 14 10 7 8 2 5v18l-4 10-5 6-7 4-5 1h-7l-9-3-8-7-4-13v-8h12l3 11 6 3h8l6-4 1-3v-8l-5-6-12-8-7-6-4-9v-18l4-9 5-6z" fill="#374099"/>
<path transform="translate(325,683)" d="m0 0h28l9 3 5 7 2 7v15l-4 14-5 7-10 5-20 1-4 25-2 10h-12l1-15 11-78zm10 16-4 26v1h13l7-3 4-5 1-3v-12l-4-4z" fill="#39429A"/>
<path transform="translate(729,682)" d="m0 0h12l8 5 4 5 4 9 1 10h-12l-5-10-3-2h-7l-6 4-4 5-4 11-2 10v19l3 9 6 5 8-1 3-1 7-14h12l1 2-4 12-7 11-8 6-7 2h-7l-8-3-7-8-4-10-2-18 1-17 4-16 6-12 8-9z" fill="#3A439B"/>
<path transform="translate(218,570)" d="m0 0h4l-1 7-4 19-2 2-76 19-24 7-28 8-3-1 12-7 19-9 16-8 20-9 28-12 13-5 11-5 13-5z" fill="#EC342B"/>
<path transform="translate(1166,683)" d="m0 0h49l-1 13-1 3h-18l-3 25-7 49-1 4h-13l7-51 4-27h-18l1-13z" fill="#3E469D"/>
<path transform="translate(1229,683)" d="m0 0h12l-1 15-11 78-1 1h-12l1-13 11-78z" fill="#3C449C"/>
<path transform="translate(882,388)" d="m0 0h4l-4 22-2 2v-2h-2l-2-5-6-11 1-4z" fill="#EC3128"/>
</svg>
