<?xml version="1.0" encoding="UTF-8"?>
<svg version="1.1" viewBox="0 0 2048 1655" width="1280" height="1280" xmlns="http://www.w3.org/2000/svg">
<path transform="translate(1206,171)" d="m0 0h38l43 2 36 4 26 5 19 6 17 7 14 9 10 9 7 8 7 14 3 11v12l-4 11-6 8-10 9-13 8-23 12-37 16-22 9-15 10-12 9-11 9-10 9-21 21-9 11-10 13-12 18-9 15-14 27-12 29-20 57-16 41-11 25-12 25-9 17-12 19-10 13-11 12-12 12-17 13-18 11-16 8-21 9-22 7-25 6-27 5-38 3-48 2h-92l-11-4-7-5-6-9-2-8v-7l3-10 7-9 9-5 3-1 96-1 50-2 25-2 24-4 24-6 21-7 24-11 17-11 11-9 7-6 9-11 7-10 10-17 11-21 14-32 14-36 13-37 12-33 10-23 10-21 14-24 10-16 14-19 13-16 12-13 22-22 11-9 15-12 24-16 10-6 28-11 32-14 7-4-19-7-24-5-26-3-37-2h-50l-51 2-55 4-63 7-60 9-35 7-35 9-36 12-28 12-24 12-22 14-15 11-13 11-12 11-11 12-10 13-10 15-13 25-9 24-7 26-5 28-3 28-1 18v43l2 33 11-25 14-29 13-24 14-23 12-18 12-17 10-13 13-16 9-10 7-8 15-16 15-14 10-9 11-9 18-14 30-20 15-9 24-13 23-11 35-14 4-1h13l9 4 8 7 4 8 1 4v12l-4 10-8 8-12 5-27 11-29 14-24 14-21 14-19 14-14 12-20 18-14 14-7 8-9 10-11 14-12 16-18 27-13 22-13 24-13 27-13 31-13 35-11 34-9 31-6 8-5 4-10 4h-11l-10-4-8-7-5-10-5-18-4-18-7-49-4-41-2-41v-32l2-36 4-33 5-26 6-23 8-24 10-23 9-17 12-19 10-13 9-11 11-12 13-13 8-7 15-12 16-11 21-13 23-12 21-10 26-10 30-10 38-10 39-8 53-8 50-6 54-5 54-3z"/>
<path transform="translate(549,1027)" d="m0 0h14l21 2 22 5 15 5 18 8 18 10 14 10 10 9 8 7 9 10 12 16 10 17 8 18 6 19 4 20 2 19v27l-3 24-5 20-7 19-8 16-9 15-13 16-18 18-13 10-16 10-16 8-12 5-15 5-17 4-14 2h-36l-23-4-16-5-18-7-17-10-12-9-12-11-7-7-10-13-9-15-3-6-1 212h-32v-492h32l1 80 9-16 12-16 12-13 13-11 18-11 17-8 18-6 19-4zm-9 30-19 3-17 5-18 8-16 10-10 8-10 9-11 13-9 14-8 16-5 13-6 25-2 17v33l3 23 6 22 8 19 10 17 9 11 11 12 14 11 13 8 19 9 20 6 20 3h27l18-3 18-5 21-9 15-9 12-9 12-11 7-7 12-16 12-23 7-21 3-14 2-16v-27l-2-17-4-18-6-18-8-16-7-11-11-14-14-14-13-10-15-9-17-8-15-5-18-4-6-1z"/>
<path transform="translate(1213,1027)" d="m0 0 23 1 18 3 22 6 21 9 17 9 17 12 11 10 8 7 12 14 12 18 10 19 7 19 5 20 3 22v37l-3 21-5 20-7 19-8 16-9 15-14 17-15 15-17 13-20 12-15 7-24 8-20 4-8 1h-34l-19-3-22-6-21-9-17-9-17-12-15-13-7-7-9-11-10-14-9-16-8-18-6-20-4-23-1-10v-33l3-22 5-20 7-19 8-16 10-16 13-16 15-15 17-13 15-9 16-8 15-6 17-5 22-4zm-11 30-22 4-18 6-17 8-14 9-9 7-10 9-10 10-11 15-9 16-6 15-6 21-3 21v32l3 21 5 19 8 19 6 11 9 13 12 14 13 12 18 12 17 9 17 6 15 4 14 2h28l22-4 23-8 19-10 14-10 12-11 10-10 11-15 9-16 8-21 5-20 2-15v-36l-3-20-6-21-7-16-9-16-10-13-12-13-11-9-13-9-21-11-21-7-20-4z"/>
<path transform="translate(1455,1034)" d="m0 0h32l1 229 3 21 5 18 7 16 10 15 11 12 11 8 12 7 17 6 14 3 9 1h20l14-2 15-4 15-6 17-10 16-13 13-13 12-16 10-18 8-19 4-16 1-219h32v360l-1 1h-31l-1-90-6 14-10 16-9 11-9 10-7 7-17 13-19 11-21 8-18 4-9 1h-25l-21-3-18-5-18-8-11-7-10-8-10-9-12-15-9-16-7-16-5-17-4-22-1-11z"/>
<path transform="translate(183,1027)" d="m0 0h11l14 1 18 4 16 6 11 6 14 10 13 13 10 14 9 17v2l-24 9-4-2-6-11-10-13-7-7-13-9-13-6-15-4-9-1h-17l-17 3-13 5-10 6-10 9-7 11-4 10-2 11v10l3 17 7 14 9 10 8 7 14 8 13 6 36 13 22 8 23 10 17 9 16 12 11 11 9 14 5 12 3 12 1 8v22l-3 15-6 15-7 11-11 13-14 11-16 9-15 6-19 5-13 2h-33l-21-4-15-5-16-8-11-7-13-11-9-10-9-14-7-14-5-16 1-5 23-6h3l7 19 9 15 12 13 10 8 17 9 15 5 20 3h13l21-3 18-6 15-8 12-11 7-9 5-11 3-13v-16l-3-15-8-16-9-10-10-8-14-8-15-7-48-17-21-8-16-8-13-8-11-9-10-10-9-14-6-13-3-12-1-8v-17l3-15 5-13 7-12 11-13 10-8 13-8 18-7 19-4z"/>
<path transform="translate(1875,949)" d="m0 0h32l1 84 75 1v28h-76l1 278 2 12 5 10 7 5 7 2h17l16-4 12-5 5-3h3v28l-6 4-16 6-14 3-12 1h-10l-16-3-12-6-9-8-7-12-3-9-2-15v-284h-49v-28h49z"/>
<path transform="translate(965,1028)" d="m0 0h23l2 1v29l-26 1-18 3-16 5-16 7-14 9-10 8-7 6-7 8-11 15-8 14-8 19-7 23-3 16-1 202-1 1h-31v-361h32l1 93 5-15 8-16 8-12 12-14 11-10 16-11 17-9 16-6 17-4z"/>
</svg>
